{"title":"Child.44.2015.DVDRip.x264.AC3.RoSubbed-playSD","uid":12212175,"size":1027874914,"categoryP":"video","categoryS":"movies","magnet":"?xt=urn:btih:bf4d7e8383fc05f31d4a0f05faef4aff13f88cc7&amp;dn=Child.44.2015.DVDRip.x264.AC3.RoSubbed-playSD&amp;tr=udp%3A%2F%2Ftracker.openbittorrent.com%3A80&amp;tr=udp%3A%2F%2Fopen.demonii.com%3A1337&amp;tr=udp%3A%2F%2Ftracker.coppersurfer.tk%3A6969&amp;tr=udp%3A%2F%2Fexodus.desync.com%3A6969","seeders":0,"leechers":0,"uploader":"TvTeam","files":5,"time":1439126258,"description":"------------------------------------------------------------------------\n\n &lt;a href=&quot; https://www.torrenting.com&quot; rel=&quot;nofollow&quot; target=&quot;_NEW&quot;&gt; https://www.torrenting.com&lt;/a&gt;\n\nSign up is OPEN - for time being. Come and have fun.\n\n------------------------------------------------------------------------General\nUnique ID                                : 176002982015176683622070826316022348782 (0x8468F0FB6CE95CC3AF774028311AFBEE)\nComplete name                            : Child.44.2015.DVDRip.x264.AC3.RoSubbed-playSD.mkv\nFormat                                   : Matroska\nFormat version                           : Version 4 / Version 2\nFile size                                : 974 MiB\nDuration                                 : 2h 17mn\nOverall bit rate                         : 992 Kbps\nEncoded date                             : UTC 2015-08-07 14:32:00\nWriting application                      : mkvmerge v7.6.0 ('Garden of Dreams') 64bit built on Feb  8 2015 13:04:34\nWriting library                          : libebml v1.3.1 + libmatroska v1.4.2\n_STATISTICS_WRITING_APP                  : mkvmerge v7.6.0 ('Garden of Dreams') 64bit built on Feb  8 2015 13:04:34\n_STATISTICS_WRITING_DATE_UTC             : 2015-08-07 14:32:00\n_STATISTICS_TAGS                         : BPS DURATION NUMBER_OF_FRAMES NUMBER_OF_BYTES\nDURATION                                 : 02:17:10.560000000\nNUMBER_OF_FRAMES                         : 257205\nNUMBER_OF_BYTES                          : 395066880\n\nVideo\nID                                       : 1\nFormat                                   : AVC\nFormat/Info                              : Advanced Video Codec\nFormat profile                           : &lt;a class=&quot;__cf_email__&quot; href=&quot;/cdn-cgi/l/email-protection&quot; data-cfemail=&quot;ca82a3ada28a86f8e4fb&quot;&gt;[email&amp;#160;protected]&lt;/a&gt;&lt;script data-cfhash='f9e31' type=&quot;text/javascript&quot;&gt;\n/* &lt;![CDATA[ */!function(){try{var t=&quot;currentScript&quot;in document?document.currentScript:function(){for(var t=document.getElementsByTagName(&quot;script&quot;),e=t.length;e--;)if(t[e].getAttribute(&quot;data-cfhash&quot;))return t[e]}();if(t&amp;&amp;t.previousSibling){var e,r,n,i,c=t.previousSibling,a=c.getAttribute(&quot;data-cfemail&quot;);if(a){for(e=&quot;&quot;,r=parseInt(a.substr(0,2),16),n=2;a.length-n;n+=2)i=parseInt(a.substr(n,2),16)^r,e+=String.fromCharCode(i);e=document.createTextNode(e),c.parentNode.replaceChild(e,c)}t.parentNode.removeChild(t);}}catch(u){}}()/* ]]&gt; */&lt;/script&gt;\nFormat settings, CABAC                   : Yes\nFormat settings, ReFrames                : 3 frames\nCodec ID                                 : V_MPEG4/ISO/AVC\nDuration                                 : 2h 17mn\nBit rate                                 : 588 Kbps\nWidth                                    : 704 pixels\nHeight                                   : 288 pixels\nDisplay aspect ratio                     : 2.40:1\nFrame rate mode                          : Constant\nFrame rate                               : 23.976 fps\nColor space                              : YUV\nChroma subsampling                       : 4:2:0\nBit depth                                : 8 bits\nScan type                                : Progressive\nBits/(Pixel*Frame)                       : 0.121\nStream size                              : 577 MiB (59%)\nWriting library                          : x264 core 125 r2200 999b753\nEncoding settings                        : cabac=1 / ref=3 / deblock=1:-2:-2 / analyse=0x3:0x113 / me=hex / subme=7 / psy=1 / psy_rd=1.00:0.15 / mixed_ref=1 / me_range=16 / chroma_me=1 / trellis=1 / 8x8dct=1 / cqm=0 / deadzone=21,11 / fast_pskip=1 / chroma_qp_offset=-3 / threads=12 / lookahead_threads=2 / sliced_threads=0 / nr=0 / decimate=1 / interlaced=0 / bluray_compat=0 / constrained_intra=0 / bframes=3 / b_pyramid=1 / b_adapt=1 / b_bias=0 / direct=1 / weightb=1 / open_gop=0 / weightp=2 / keyint=240 / keyint_min=23 / scenecut=40 / intra_refresh=0 / rc_lookahead=40 / rc=crf / mbtree=1 / crf=19.0 / qcomp=0.60 / qpmin=0 / qpmax=69 / qpstep=4 / ip_ratio=1.40 / aq=1:1.00\nDefault                                  : Yes\nForced                                   : No\n\nAudio\nID                                       : 2\nFormat                                   : AC-3\nFormat/Info                              : Audio Coding 3\nMode extension                           : CM (complete main)\nFormat settings, Endianness              : Big\nCodec ID                                 : A_AC3\nDuration                                 : 2h 17mn\nBit rate mode                            : Constant\nBit rate                                 : 384 Kbps\nChannel(s)                               : 6 channels\nChannel positions                        : Front: L C R, Side: L R, LFE\nSampling rate                            : 48.0 KHz\nBit depth                                : 16 bits\nCompression mode                         : Lossy\nDelay relative to video                  : 900ms\nStream size                              : 377 MiB (39%)\nDefault                                  : Yes\nForced                                   : No","torrent":{"xt":"urn:btih:bf4d7e8383fc05f31d4a0f05faef4aff13f88cc7","amp;dn":"Child.44.2015.DVDRip.x264.AC3.RoSubbed-playSD","amp;tr":["udp%3A%2F%2Ftracker.openbittorrent.com%3A80","udp%3A%2F%2Fopen.demonii.com%3A1337","udp%3A%2F%2Ftracker.coppersurfer.tk%3A6969","udp%3A%2F%2Fexodus.desync.com%3A6969"],"infoHash":"bf4d7e8383fc05f31d4a0f05faef4aff13f88cc7","infoHashBuffer":{"type":"Buffer","data":[191,77,126,131,131,252,5,243,29,74,15,5,250,239,74,255,19,248,140,199]},"announce":[],"urlList":[]}}